<?xml version="1.0" standalone="no"?>
<!DOCTYPE svg PUBLIC "-//W3C//DTD SVG 20010904//EN"
 "http://www.w3.org/TR/2001/REC-SVG-20010904/DTD/svg10.dtd">
<svg version="1.0" xmlns="http://www.w3.org/2000/svg"
 width="2400.000000pt" height="2400.000000pt" viewBox="0 0 2400.000000 2400.000000"
 preserveAspectRatio="xMidYMid meet">

<g transform="translate(0.000000,2400.000000) scale(0.100000,-0.100000)"
fill="#000000" stroke="none">
<path d="M14131 22782 c-6 -11 -39 -151 -75 -313 -36 -162 -86 -384 -111 -494
-61 -266 -62 -271 -38 -283 42 -23 350 -85 419 -85 91 0 165 32 238 106 63 63
94 120 129 237 61 201 85 367 68 465 -22 127 -107 245 -206 287 -32 14 -382
98 -407 98 -4 0 -12 -8 -17 -18z m268 -268 c130 -30 160 -79 141 -231 -13
-100 -51 -258 -81 -338 -26 -69 -76 -115 -125 -115 -43 0 -172 29 -179 40 -3
4 15 97 40 206 25 110 54 242 66 294 29 131 38 160 54 160 7 0 45 -7 84 -16z"/>
<path d="M8795 22494 c-60 -19 -114 -39 -118 -43 -5 -5 -1 -179 7 -387 9 -209
19 -463 22 -567 5 -120 11 -193 19 -204 11 -15 21 -13 111 18 l99 34 -3 106
c-3 79 0 108 10 116 12 9 64 26 206 67 l53 15 47 -66 c26 -36 57 -77 68 -92
l22 -25 91 29 c51 16 97 35 102 42 11 12 2 28 -296 498 -59 94 -137 217 -173
275 -87 141 -141 220 -150 219 -4 0 -56 -16 -117 -35z m193 -449 c51 -93 91
-176 90 -183 -3 -17 -149 -64 -161 -52 -5 4 -15 68 -22 141 -7 74 -17 165 -21
203 -6 57 -5 68 7 64 8 -2 56 -81 107 -173z"/>
<path d="M16606 21978 c-34 -54 -69 -137 -63 -152 4 -9 41 -33 83 -53 42 -20
78 -42 81 -50 7 -19 -288 -623 -304 -623 -7 0 -50 19 -97 42 -48 24 -90 39
-100 35 -9 -4 -33 -40 -53 -82 -30 -59 -35 -79 -27 -93 14 -21 551 -290 581
-291 18 -1 29 13 58 73 51 107 51 108 -55 161 -51 25 -90 51 -90 60 0 20 288
598 303 609 8 5 39 -5 86 -28 40 -21 82 -36 94 -34 15 2 32 24 59 80 21 43 35
84 32 91 -6 16 -531 278 -556 277 -10 0 -24 -10 -32 -22z"/>
<path d="M6580 21520 c-167 -35 -305 -183 -317 -343 -9 -111 21 -203 125 -387
120 -209 203 -305 311 -357 49 -23 69 -27 151 -28 91 0 100 2 172 38 199 98
280 314 187 498 -29 59 -35 58 -154 -13 l-57 -33 7 -50 c15 -102 -1 -149 -65
-191 -51 -34 -116 -42 -159 -20 -39 21 -133 145 -205 275 -84 148 -99 188 -93
245 4 42 10 55 45 87 74 70 165 73 227 9 16 -16 38 -30 49 -30 27 0 163 79
171 99 15 39 -108 156 -195 186 -58 20 -143 26 -200 15z"/>
<path d="M18732 20643 c-27 -32 -118 -141 -201 -243 -250 -305 -303 -368 -378
-459 -40 -47 -73 -93 -73 -102 0 -20 130 -129 154 -129 15 0 52 43 301 346 57
69 91 103 93 93 1 -9 -40 -145 -93 -303 -63 -186 -95 -295 -91 -309 9 -30 149
-142 178 -142 18 0 97 90 365 415 212 258 342 423 343 437 0 23 -119 133 -145
133 -16 0 -72 -64 -274 -313 -79 -98 -148 -174 -152 -170 -5 5 5 45 21 88 108
291 199 557 194 569 -8 20 -163 146 -180 146 -7 0 -35 -26 -62 -57z"/>
<path d="M4569 19997 c-104 -30 -209 -121 -257 -225 -37 -80 -42 -185 -12
-264 28 -75 98 -149 174 -184 51 -23 67 -26 137 -22 74 4 88 9 221 76 150 76
194 86 236 56 54 -38 66 -113 28 -178 -34 -58 -80 -89 -141 -94 -44 -3 -55 0
-94 30 -24 18 -50 37 -57 43 -10 7 -32 -8 -84 -60 -38 -38 -70 -73 -70 -77 0
-19 83 -96 129 -122 175 -95 400 -17 515 177 49 83 64 172 42 257 -20 78 -64
149 -120 194 -77 63 -102 71 -208 71 l-98 0 -140 -72 c-159 -83 -199 -91 -242
-48 -36 36 -42 78 -19 130 46 103 177 137 240 61 8 -9 22 -16 33 -16 28 0 138
108 138 135 0 29 -67 91 -127 117 -56 25 -164 32 -224 15z"/>
<path d="M20460 18786 c-173 -50 -501 -309 -571 -451 -92 -188 -22 -405 163
-506 60 -33 67 -34 168 -34 98 0 110 2 174 33 163 77 431 294 493 399 143 245
-26 559 -307 569 -42 2 -95 -2 -120 -10z m158 -220 c81 -42 123 -146 87 -215
-31 -60 -286 -265 -402 -322 -72 -36 -113 -34 -162 7 -56 46 -75 92 -72 167 2
59 216 245 405 354 47 26 104 30 144 9z"/>
<path d="M2804 17923 c-31 -48 -61 -98 -67 -110 -11 -25 -15 -20 254 -314 74
-81 217 -239 319 -352 102 -113 193 -206 203 -206 11 -1 33 24 60 67 76 118
77 100 -4 192 -50 56 -69 85 -65 97 14 36 140 223 150 223 6 0 53 -12 103 -26
51 -14 99 -24 106 -21 17 6 107 153 107 175 0 20 1 20 -667 231 -226 72 -418
131 -427 131 -9 0 -41 -38 -72 -87z m406 -228 c186 -70 210 -81 210 -95 0 -11
-70 -129 -81 -136 -15 -9 -33 7 -173 144 -120 117 -149 152 -131 152 3 0 81
-29 175 -65z"/>
<path d="M7032 16682 c-9 -7 -12 -47 -10 -168 l3 -159 1963 -3 1962 -2 0
-4376 0 -4376 -522 5 c-548 5 -608 9 -844 57 -828 170 -1548 727 -1927 1490
-182 365 -276 722 -294 1118 l-6 132 -164 0 c-123 0 -163 -3 -164 -12 -4 -108
4 -556 11 -623 129 -1177 978 -2144 2125 -2420 312 -75 157 -70 2215 -70 1712
0 1857 1 2015 18 462 49 763 112 1122 232 784 263 1381 711 1821 1367 391 583
645 1345 741 2223 30 270 40 448 48 785 15 721 -60 1381 -222 1957 -399 1415
-1320 2319 -2720 2667 -379 94 -734 139 -1230 156 -351 12 -5904 13 -5923 2z
m5859 -342 c448 -26 744 -96 1052 -250 681 -341 1118 -1047 1336 -2155 26
-135 61 -367 90 -605 80 -648 80 -1936 1 -2650 -88 -790 -208 -1297 -416
-1755 -301 -661 -747 -1052 -1397 -1225 -219 -58 -435 -83 -839 -96 l-198 -7
0 4376 0 4377 93 0 c52 0 176 -5 278 -10z"/>
<path d="M1791 15931 c-6 -10 -33 -83 -60 -162 -27 -79 -78 -228 -114 -331
-52 -147 -63 -189 -54 -201 14 -16 148 -67 178 -67 22 0 25 7 70 138 18 52 38
96 44 99 10 3 343 -109 744 -252 51 -18 99 -31 107 -28 16 6 67 155 62 184 -4
25 13 18 -323 134 -498 172 -515 179 -515 194 0 8 17 62 37 119 25 73 34 109
27 119 -9 15 -154 73 -181 73 -7 0 -17 -8 -22 -19z"/>
<path d="M22245 13404 c-102 -14 -131 -29 -121 -63 3 -9 10 -61 16 -116 6 -59
16 -106 25 -114 11 -12 31 -12 122 -2 136 15 150 19 155 39 6 26 -23 245 -34
260 -12 14 -31 14 -163 -4z"/>
<path d="M1698 11493 c-46 -7 -49 -20 -39 -151 5 -66 12 -126 16 -132 9 -14
234 -9 269 5 17 8 18 17 11 133 -3 69 -9 131 -12 138 -4 11 -30 14 -112 13
-58 -1 -118 -4 -133 -6z"/>
<path d="M21313 8458 c-5 -7 -43 -92 -83 -188 -70 -167 -74 -179 -74 -255 -1
-70 3 -88 31 -148 50 -105 117 -164 274 -242 72 -35 174 -79 227 -97 85 -29
110 -33 202 -33 99 0 110 2 172 33 76 37 130 93 163 166 57 127 135 319 135
332 0 7 -17 22 -37 32 -79 40 -969 412 -984 412 -9 0 -21 -6 -26 -12z m445
-399 c158 -67 293 -128 301 -135 12 -11 9 -24 -19 -89 -42 -96 -74 -125 -139
-125 -102 0 -390 116 -475 191 -54 47 -62 92 -32 173 33 87 44 106 62 106 8 0
144 -55 302 -121z"/>
<path d="M3552 6764 c-47 -30 -72 -52 -72 -65 0 -10 48 -91 106 -179 75 -112
104 -164 96 -172 -7 -7 -80 2 -241 31 -284 50 -352 52 -436 12 -73 -35 -126
-88 -159 -161 -38 -83 -43 -153 -17 -239 53 -175 228 -286 397 -251 104 22
161 61 151 102 -9 34 -95 148 -112 148 -8 0 -29 -9 -47 -20 -57 -35 -115 -19
-162 43 -30 39 -33 84 -11 127 33 63 109 76 265 46 163 -31 484 -86 506 -86
33 0 204 116 204 138 0 26 -361 566 -380 570 -9 1 -48 -18 -88 -44z"/>
<path d="M20113 6238 c-62 -84 -144 -196 -182 -248 -39 -52 -71 -103 -71 -112
0 -16 139 -128 159 -128 13 0 54 50 161 198 52 73 102 132 111 132 23 0 169
-112 169 -130 0 -8 -50 -82 -111 -163 -60 -82 -109 -156 -107 -165 4 -21 135
-122 159 -122 12 0 56 52 131 155 62 85 119 155 128 155 20 0 164 -107 168
-126 2 -8 -47 -82 -108 -165 -61 -82 -114 -157 -117 -165 -3 -8 4 -25 16 -38
36 -39 129 -98 147 -94 18 3 374 480 374 502 0 18 -22 36 -230 188 -102 74
-290 212 -418 306 -129 95 -241 172 -251 172 -10 0 -60 -59 -128 -152z"/>
<path d="M4985 4867 c-59 -20 -84 -35 -138 -86 -60 -55 -95 -123 -105 -198
l-7 -56 -65 -21 c-80 -26 -120 -53 -171 -118 -104 -133 -94 -317 27 -447 91
-99 213 -138 336 -107 124 32 221 128 253 250 8 33 18 63 22 67 5 3 30 12 57
18 105 26 189 94 235 191 22 47 26 69 26 150 0 82 -4 103 -27 152 -34 74 -113
152 -184 185 -68 31 -196 41 -259 20z m158 -208 c32 -17 77 -60 93 -91 8 -15
14 -47 14 -72 0 -39 -6 -51 -37 -84 -28 -29 -49 -41 -81 -47 -118 -19 -228
122 -175 225 35 67 125 100 186 69z m-315 -363 c132 -69 106 -256 -36 -256
-143 0 -209 181 -93 253 32 20 93 22 129 3z"/>
<path d="M18641 4565 c-81 -23 -145 -62 -206 -126 -81 -85 -110 -153 -110
-259 0 -73 4 -93 28 -143 77 -156 227 -232 384 -193 37 9 115 39 173 66 127
60 167 64 211 21 24 -24 29 -38 29 -75 0 -39 -6 -52 -36 -85 -47 -53 -110 -77
-157 -62 -19 6 -45 23 -57 36 -13 14 -32 25 -43 25 -28 0 -147 -107 -147 -132
0 -25 66 -91 118 -117 20 -10 63 -24 94 -31 150 -34 338 69 413 225 25 51 29
72 30 145 0 72 -4 94 -26 141 -70 148 -217 216 -376 176 -34 -9 -106 -37 -160
-63 -54 -26 -117 -49 -140 -52 -38 -4 -46 -1 -78 31 -30 30 -35 42 -35 81 0
76 45 138 124 171 57 24 98 13 149 -41 23 -24 47 -44 54 -44 19 0 153 119 153
136 0 9 -26 42 -58 73 -90 91 -217 127 -331 96z"/>
<path d="M6929 3447 c-138 -39 -223 -129 -374 -397 -87 -153 -117 -239 -118
-334 -1 -98 13 -149 56 -213 96 -138 267 -192 422 -133 117 45 219 182 246
329 31 174 -68 334 -242 393 -73 24 -75 41 -18 103 65 70 134 79 209 25 45
-32 63 -75 57 -130 -3 -25 -3 -51 1 -57 13 -21 145 -94 159 -89 27 11 57 97
56 167 -1 217 -242 396 -454 336z m-24 -577 c53 -50 55 -124 7 -214 -50 -92
-120 -123 -194 -87 -52 25 -78 65 -78 121 0 64 53 153 114 191 42 27 117 21
151 -11z"/>
<path d="M16701 3250 c-196 -100 -244 -139 -288 -234 -25 -55 -28 -72 -27
-161 1 -111 16 -161 109 -345 99 -196 178 -291 290 -346 53 -25 71 -29 150
-29 l90 0 180 91 c99 50 184 99 190 108 8 13 -16 68 -112 259 -362 716 -379
747 -403 747 -3 -1 -83 -41 -179 -90z m229 -452 c182 -356 180 -352 180 -361
0 -12 -161 -87 -187 -87 -81 0 -172 117 -275 355 -77 178 -66 232 62 298 41
20 79 37 85 37 6 0 67 -109 135 -242z"/>
<path d="M8921 2581 c-6 -10 -19 -50 -30 -89 -15 -54 -17 -74 -8 -85 12 -14
65 -34 155 -57 27 -7 42 -16 42 -27 0 -9 -29 -113 -64 -232 -145 -490 -177
-603 -174 -624 2 -17 19 -26 88 -48 135 -43 145 -42 304 53 76 45 145 92 152
104 8 11 26 61 40 109 23 80 24 89 10 104 -15 14 -27 10 -141 -47 -118 -58
-165 -74 -165 -53 0 4 31 114 69 242 38 129 74 252 80 274 19 71 15 71 151 30
102 -30 125 -34 135 -23 13 14 55 145 55 172 0 21 -11 26 -240 91 -107 31
-246 72 -309 91 -132 40 -137 40 -150 15z"/>
<path d="M14630 2435 c-25 -7 -151 -39 -280 -70 -139 -33 -240 -62 -246 -71
-15 -19 25 -183 47 -197 11 -7 71 4 201 37 103 25 193 46 202 46 9 0 18 -10
21 -22 3 -13 14 -59 25 -103 15 -63 17 -82 7 -91 -7 -6 -88 -29 -181 -50 -94
-22 -178 -46 -188 -54 -18 -15 -18 -17 1 -99 11 -47 27 -91 35 -99 12 -12 39
-8 202 32 104 25 192 42 196 38 12 -12 56 -199 49 -210 -3 -6 -85 -29 -181
-51 -96 -23 -185 -46 -197 -51 -27 -11 -28 -28 -7 -119 24 -110 20 -108 155
-76 488 119 494 120 497 140 1 11 -29 151 -68 310 -39 160 -84 346 -101 415
-90 375 -85 361 -123 359 -11 -1 -41 -7 -66 -14z"/>
</g>
</svg>
